<?xml version="1.0" standalone="no"?>
<!DOCTYPE svg PUBLIC "-//W3C//DTD SVG 20010904//EN"
 "http://www.w3.org/TR/2001/REC-SVG-20010904/DTD/svg10.dtd">
<svg version="1.0" xmlns="http://www.w3.org/2000/svg"
 width="300.000000pt" height="412.000000pt" viewBox="0 0 300.000000 412.000000"
 preserveAspectRatio="xMidYMid meet">
<metadata>
Created by potrace 1.10, written by Peter Selinger 2001-2011
</metadata>
<g transform="translate(0.000000,412.000000) scale(0.100000,-0.100000)"
fill="#000000" stroke="none">
<path d="M1377 3822 c-15 -15 -27 -32 -27 -38 0 -5 -12 -22 -26 -39 -38 -43
-92 -128 -99 -156 -12 -48 32 -71 101 -55 23 5 51 -19 73 -62 11 -21 34 -27
32 -9 -1 4 -4 6 -7 5 -8 -4 -26 41 -28 67 -1 18 -8 20 -79 20 -42 0 -77 1 -77
3 0 12 52 100 96 163 46 65 81 129 71 129 -2 0 -15 -13 -30 -28z"/>
<path d="M1420 3841 c0 -8 34 -66 75 -130 41 -64 79 -131 86 -148 10 -29 8
-36 -13 -62 -14 -16 -31 -50 -38 -75 -9 -32 -17 -45 -26 -42 -8 3 -14 1 -14
-5 0 -6 -5 -7 -12 -3 -7 4 -8 3 -4 -4 4 -7 18 -12 32 -12 14 0 22 -4 19 -10
-3 -5 -1 -10 5 -10 7 0 9 7 6 16 -7 19 17 94 45 142 34 60 27 89 -57 214 -87
128 -104 149 -104 129z"/>
<path d="M1417 3783 c-10 -16 -8 -223 3 -223 6 0 10 29 10 71 0 38 4 68 9 65
4 -3 6 7 4 22 l-5 27 22 -25 c22 -25 22 -24 -1 15 -28 50 -35 59 -42 48z"/>
<path d="M1482 3683 c12 -26 53 -109 55 -112 2 -2 6 -2 9 1 5 6 -54 118 -63
118 -2 0 -3 -3 -1 -7z"/>
<path d="M1973 3648 c-34 -38 -46 -69 -45 -125 0 -68 34 -140 101 -216 57 -65
74 -111 73 -202 0 -41 3 -54 8 -40 14 32 11 143 -3 178 -8 18 -34 53 -58 78
-24 25 -57 71 -73 103 -24 49 -28 66 -24 120 3 44 10 71 27 94 26 37 23 42 -6
10z"/>
<path d="M1992 3615 c-30 -65 -6 -122 91 -218 107 -107 112 -131 63 -311 -9
-32 -14 -61 -12 -63 3 -3 9 10 14 29 5 18 18 56 29 83 41 106 13 199 -89 294
-62 56 -85 105 -82 166 2 25 2 45 0 45 -2 0 -8 -11 -14 -25z"/>
<path d="M1427 3546 c-9 -10 -17 -23 -17 -29 0 -7 8 -2 18 10 20 25 66 28 93
5 16 -14 16 -18 5 -31 -16 -19 -37 -101 -26 -101 4 0 11 15 14 34 4 19 18 51
32 71 14 21 23 39 21 41 -2 2 -31 7 -63 10 -49 5 -63 3 -77 -10z"/>
<path d="M1021 3494 c-1 -18 -18 -57 -42 -95 -42 -65 -61 -131 -40 -143 7 -5
11 1 11 13 0 12 -1 22 -2 24 -1 1 15 33 35 71 37 69 53 124 44 148 -3 7 -6 -1
-6 -18z"/>
<path d="M1257 3508 c19 -24 43 -112 43 -155 0 -24 3 -43 8 -43 4 0 5 -29 4
-65 -3 -42 0 -65 7 -65 7 0 11 24 11 60 l0 60 38 1 c20 1 51 4 67 8 l30 7 -37
7 c-20 4 -55 5 -77 1 -36 -6 -41 -4 -41 13 0 21 37 33 103 33 15 0 27 5 27 10
0 6 -28 10 -65 10 -60 0 -65 2 -65 22 0 28 -39 108 -52 108 -7 0 -7 -4 -1 -12z"/>
<path d="M976 3483 c-9 -18 -20 -33 -25 -33 -26 0 -90 -133 -70 -145 5 -4 9
-17 9 -30 0 -15 9 -29 21 -36 21 -11 21 -10 5 12 -24 35 -20 90 9 130 66 91
77 109 73 121 -3 8 -12 -1 -22 -19z"/>
<path d="M1680 3448 c-45 -74 -34 -146 32 -227 51 -62 66 -148 25 -145 -14 2
-17 -7 -17 -44 l0 -45 21 19 c26 23 49 74 49 110 0 34 -25 87 -58 120 -47 47
-62 77 -62 128 0 32 7 60 21 82 11 19 18 34 15 34 -4 0 -15 -15 -26 -32z"/>
<path d="M1712 3433 c-10 -19 -15 -51 -13 -92 1 -26 81 -111 105 -111 15 0 59
-61 75 -103 28 -73 3 -145 -74 -216 -59 -55 -85 -97 -85 -141 0 -59 17 -68 22
-12 4 43 13 60 69 127 81 96 97 123 100 160 2 33 -10 107 -20 115 -3 3 -13 19
-22 35 -9 17 -32 39 -50 50 -50 31 -109 96 -109 121 0 12 5 35 10 50 12 31 6
44 -8 17z"/>
<path d="M1388 3343 c23 -2 59 -2 80 0 20 2 1 4 -43 4 -44 0 -61 -2 -37 -4z"/>
<path d="M1430 3252 c-8 -3 -33 -23 -55 -44 -22 -21 -45 -38 -51 -38 -6 0 -11
-23 -13 -52 -2 -57 4 -63 12 -11 7 43 9 46 70 86 78 52 94 78 37 59z"/>
<path d="M1425 3145 c-65 -30 -118 -101 -112 -148 l4 -32 1 32 c2 24 13 41 49
73 26 23 60 49 75 58 16 9 28 20 28 24 0 11 -10 9 -45 -7z"/>
<path d="M1520 3121 c0 -36 -3 -41 -42 -60 l-43 -21 -6 32 -6 33 -2 -37 c-1
-30 -7 -40 -34 -57 -61 -38 -78 -72 -79 -162 0 -44 2 -83 6 -86 3 -4 6 10 6
29 0 31 7 42 47 74 96 80 110 94 86 88 -17 -5 -22 -1 -26 18 l-4 23 -2 -24 c0
-14 -22 -46 -51 -77 l-50 -53 0 44 c0 43 3 47 63 94 34 28 81 60 105 72 40 21
42 25 42 66 0 23 -2 43 -5 43 -3 0 -5 -18 -5 -39z"/>
<path d="M826 3122 c-3 -5 -44 -22 -92 -38 -109 -36 -164 -85 -183 -159 -7
-28 -19 -60 -27 -73 -14 -21 -33 -142 -28 -177 4 -27 37 -120 50 -140 7 -11
20 -42 29 -70 10 -27 31 -68 48 -91 33 -43 122 -114 144 -114 12 0 52 -19 63
-30 13 -13 87 -60 95 -60 25 0 -58 66 -115 92 -36 16 -82 41 -103 55 -42 29
-101 104 -111 143 -4 14 -22 61 -39 105 -40 101 -44 204 -11 275 12 25 26 63
32 85 16 57 64 99 157 135 79 31 115 54 103 65 -3 4 -9 2 -12 -3z"/>
<path d="M824 3072 c-16 -15 -51 -41 -76 -59 -61 -42 -81 -73 -86 -140 -6 -69
12 -65 23 4 7 49 7 49 128 162 26 24 47 47 47 52 0 12 -1 12 -36 -19z"/>
<path d="M1841 3040 c-6 -22 -15 -40 -19 -40 -4 0 -16 -13 -25 -30 -10 -16
-15 -30 -10 -30 14 1 60 74 68 108 9 45 1 40 -14 -8z"/>
<path d="M1670 3032 c-14 -20 -46 -63 -72 -95 -27 -32 -48 -65 -48 -73 0 -7
-5 -14 -10 -14 -6 0 -8 10 -5 23 3 12 1 36 -5 52 -7 22 -9 -3 -7 -97 l3 -128
-43 0 c-40 0 -43 2 -44 28 0 15 -4 36 -9 47 -6 15 -9 8 -9 -27 l-1 -48 -55 0
c-30 0 -55 2 -55 4 0 9 45 52 83 81 21 15 43 37 48 47 10 19 9 19 -23 2 -37
-19 -88 -63 -88 -77 0 -5 -8 -17 -18 -26 -20 -18 -40 -57 -44 -86 -2 -14 -14
-22 -43 -27 -22 -4 -49 -9 -60 -12 -11 -3 -38 -10 -60 -16 -67 -17 -200 -24
-223 -11 -24 13 -44 -5 -21 -20 22 -14 78 -11 200 12 380 68 339 66 589 28
136 -20 167 -23 134 -9 -12 5 -53 12 -91 15 -102 10 -143 56 -143 157 1 68 24
117 94 196 35 40 56 72 56 88 0 13 -1 24 -2 24 -2 0 -14 -17 -28 -38z m-112
-372 l3 -25 -135 0 c-125 0 -135 1 -140 19 -3 11 -3 23 0 28 3 5 65 7 137 6
l132 -3 3 -25z"/>
<path d="M1437 2663 c18 -2 50 -2 70 0 21 2 7 4 -32 4 -38 0 -55 -2 -38 -4z"/>
<path d="M1952 2998 c-1 -15 -7 -39 -13 -55 -51 -126 -6 -247 126 -338 48 -33
96 -88 102 -118 3 -15 10 -30 14 -33 5 -3 9 -31 9 -63 0 -113 -21 -151 -63
-114 -11 10 -18 14 -15 8 30 -69 40 -85 48 -85 23 0 53 94 54 170 1 121 -39
191 -157 271 -99 68 -141 177 -106 277 6 16 9 47 6 69 -2 25 -4 29 -5 11z"/>
<path d="M1980 2930 c0 -131 9 -152 108 -247 48 -45 88 -80 90 -78 7 6 -63
105 -74 105 -21 0 -82 78 -93 117 -6 21 -11 65 -11 98 0 33 -5 67 -10 75 -7
10 -10 -11 -10 -70z"/>
<path d="M1692 2934 c-7 -8 -12 -25 -10 -37 3 -20 5 -20 21 10 18 34 11 51
-11 27z"/>
<path d="M1494 2866 c-3 -8 -12 -12 -20 -9 -8 3 -14 0 -14 -6 0 -6 3 -10 8
-10 23 4 28 -7 30 -63 2 -34 5 -64 8 -67 2 -3 3 34 2 82 -1 48 -4 87 -6 87 -1
0 -5 -6 -8 -14z"/>
<path d="M681 2793 c-15 -51 -14 -116 0 -107 8 4 9 0 4 -15 -3 -11 -1 -29 5
-38 8 -15 9 -12 5 12 -4 23 -3 26 4 10 5 -11 21 -33 36 -49 27 -29 27 -30 7
-45 -59 -48 -56 -158 6 -214 19 -17 20 -17 36 9 20 29 91 65 151 74 32 5 36 8
21 15 -25 11 -118 -19 -155 -50 -35 -30 -48 -31 -56 -5 -3 11 -11 20 -16 20
-5 0 -9 5 -9 12 0 9 3 9 12 0 7 -7 16 -8 22 -3 6 5 22 12 35 16 17 5 21 4 16
-5 -6 -9 -3 -9 12 -1 34 18 107 41 133 42 23 0 23 1 5 9 -18 8 -18 9 5 10 14
1 36 4 50 6 65 12 144 11 235 -3 55 -8 101 -16 103 -18 2 -1 4 -19 5 -38 1
-19 5 -33 10 -30 7 4 11 -12 8 -30 -1 -5 8 -21 19 -37 11 -15 20 -34 20 -42 1
-8 6 -6 15 6 20 26 19 35 -4 29 -11 -3 -21 2 -24 11 -4 9 -2 16 2 16 13 0 -11
62 -28 76 -11 8 -11 15 -2 33 7 12 16 19 21 16 6 -3 7 0 4 8 -7 19 -86 25
-284 22 -148 -3 -176 -7 -303 -45 -21 -6 -41 -18 -44 -26 -9 -25 -23 -15 -23
16 0 40 36 93 85 125 l40 26 -30 -2 c-16 -2 -35 -7 -42 -12 -13 -9 -76 47 -65
57 3 3 0 6 -6 6 -19 0 -34 68 -27 120 8 59 0 66 -14 13z"/>
<path d="M2172 2673 c36 -38 98 -125 123 -173 7 -14 18 -51 26 -83 15 -70 26
-80 35 -31 9 46 -9 106 -45 147 -15 17 -42 53 -59 78 -28 42 -91 99 -108 99
-5 0 8 -17 28 -37z"/>
<path d="M1418 2582 c-2 -18 0 -35 4 -38 4 -3 8 -13 8 -22 0 -9 9 -28 19 -41
19 -25 19 -25 -5 -60 -27 -40 -30 -56 -11 -67 6 -4 9 -4 5 1 -4 4 1 20 12 35
11 16 20 33 20 40 0 27 33 67 51 63 11 -3 19 0 19 7 0 10 35 11 158 7 86 -4
180 -9 207 -11 l50 -5 -45 11 c-51 12 -378 17 -427 6 -28 -6 -33 -5 -33 12 0
10 -4 22 -10 25 -5 3 -10 17 -10 30 0 20 6 24 38 27 l37 3 -42 5 c-41 5 -41 5
-45 -28z"/>
<path d="M2034 2580 c27 -24 55 -58 62 -75 11 -26 13 -27 14 -8 0 27 -46 81
-92 107 -27 16 -25 12 16 -24z"/>
<path d="M1961 2603 c0 -6 -8 -18 -16 -27 -17 -16 -6 -29 14 -17 7 5 11 19 8
32 -2 13 -5 19 -6 12z"/>
<path d="M626 2484 c5 -38 28 -74 47 -74 5 0 4 7 -3 15 -7 8 -9 15 -5 15 4 0
1 8 -6 17 -12 14 -12 15 -1 9 11 -7 12 -4 4 11 -6 11 -18 25 -26 32 -13 11
-14 7 -10 -25z"/>
<path d="M2367 2475 c45 -90 56 -143 50 -244 -5 -99 -25 -166 -70 -239 -38
-60 -39 -62 -28 -62 18 0 74 56 76 76 3 30 17 78 26 89 4 6 7 15 7 20 0 6 3
28 6 50 16 104 15 139 -3 208 -11 39 -24 73 -30 75 -6 2 -11 9 -11 16 0 7 -10
21 -21 32 l-22 19 20 -40z"/>
<path d="M1996 2470 c23 -11 50 -30 59 -40 15 -17 16 -22 4 -37 -13 -16 -12
-17 4 -4 9 7 17 19 17 27 0 18 -59 61 -95 69 -26 6 -24 4 11 -15z"/>
<path d="M2111 2450 c-1 -14 -10 -40 -21 -58 -26 -42 -26 -51 0 -22 24 27 34
60 27 87 -3 13 -5 11 -6 -7z"/>
<path d="M1715 2451 c11 -5 38 -5 60 -1 38 7 36 8 -20 8 -40 1 -53 -2 -40 -7z"/>
<path d="M1890 2432 c69 -20 103 -35 135 -61 20 -16 20 -16 2 6 -23 27 -101
61 -158 68 -36 5 -33 2 21 -13z"/>
<path d="M1220 2434 c25 -10 94 -58 103 -71 4 -7 13 -18 20 -25 25 -28 67
-116 72 -154 2 -21 5 -505 5 -1074 l0 -1035 31 70 c64 148 93 265 103 415 l5
85 -10 -70 c-21 -158 -53 -305 -75 -347 -9 -17 -17 -28 -19 -26 -5 5 -6 140
-5 500 0 190 4 278 11 278 13 0 4 81 -16 148 -7 23 -9 42 -5 42 4 0 6 17 4 38
-2 20 -6 57 -8 81 -3 24 -1 63 3 87 6 31 5 42 -3 37 -6 -4 -5 0 2 9 10 13 10
17 0 21 -11 4 -11 6 0 6 9 1 11 11 6 36 -6 35 12 94 57 183 11 21 19 57 19 85
0 32 10 72 30 117 17 38 40 90 51 117 23 52 33 186 19 246 -5 21 -8 -7 -9 -82
l-1 -114 -55 -107 c-50 -98 -54 -113 -56 -181 -2 -48 -8 -80 -17 -91 -34 -41
-38 -23 -40 205 -1 122 -3 233 -5 247 -17 112 -18 128 -5 141 7 8 19 26 27 39
8 14 21 36 30 50 15 24 15 24 -3 10 -10 -7 -30 -36 -46 -63 -27 -48 -27 -48
-33 -20 -13 66 -104 156 -167 167 -19 3 -28 3 -20 0z"/>
<path d="M1224 2353 c-14 -88 -11 -418 4 -436 10 -12 13 -80 11 -309 -1 -188
2 -301 9 -313 5 -11 15 -39 21 -62 7 -24 17 -43 22 -43 7 0 8 7 4 18 -4 9 -7
25 -7 35 0 9 -2 17 -6 17 -24 0 -31 68 -31 290 0 257 -12 843 -16 848 -2 2 -7
-18 -11 -45z"/>
<path d="M1018 2385 c-3 -3 8 -31 23 -61 16 -30 29 -60 29 -66 0 -6 12 -27 27
-46 14 -19 34 -51 44 -71 l18 -36 1 42 c0 33 -4 43 -20 48 -22 7 -52 53 -69
105 -13 41 -45 92 -53 85z"/>
<path d="M945 2331 c-3 -6 -14 -8 -25 -6 -11 2 -22 0 -25 -5 -3 -4 11 -8 30
-8 23 0 35 5 35 14 0 16 -6 18 -15 5z"/>
<path d="M2331 2248 c-1 -34 0 -60 3 -57 7 7 11 108 4 114 -3 3 -6 -23 -7 -57z"/>
<path d="M1871 2247 c-5 -14 -14 -28 -20 -31 -6 -4 -7 -14 -4 -23 5 -12 3 -14
-7 -8 -9 5 -11 4 -6 -3 4 -7 9 -12 12 -12 9 0 46 91 40 97 -3 3 -10 -6 -15
-20z"/>
<path d="M2090 2240 c0 -36 -28 -96 -65 -142 -21 -25 -44 -41 -88 -57 -23 -9
-25 -8 -23 22 2 26 1 28 -8 13 -6 -10 -30 -44 -53 -76 l-41 -57 96 50 c54 27
111 63 129 80 57 54 89 147 63 187 -7 11 -10 6 -10 -20z"/>
<path d="M622 2220 c16 -22 23 -48 26 -95 4 -56 0 -73 -26 -129 -17 -36 -45
-86 -62 -111 -17 -24 -38 -64 -46 -87 -17 -48 -20 -147 -5 -193 8 -25 9 -16
10 48 1 119 24 189 78 245 7 7 13 18 13 23 0 5 12 28 26 51 20 31 28 60 32
109 6 81 -1 110 -32 144 -32 35 -41 32 -14 -5z"/>
<path d="M919 2211 c6 -11 25 -28 41 -38 51 -30 73 -97 58 -179 -8 -41 -20
-63 -52 -93 l-26 -24 -1 34 0 34 -14 -38 c-8 -21 -31 -61 -52 -89 l-37 -51 55
38 c117 81 150 134 151 238 0 90 -25 133 -100 171 -33 17 -33 17 -23 -3z"/>
<path d="M1579 2193 c-1 -21 -3 -60 -4 -88 -2 -27 1 -57 6 -65 5 -9 9 26 9 88
0 56 -2 102 -5 102 -3 0 -6 -17 -6 -37z"/>
<path d="M595 2162 c0 -51 -4 -63 -40 -112 -22 -30 -49 -63 -61 -72 -12 -10
-27 -32 -34 -50 -6 -18 -16 -42 -20 -53 -17 -43 -40 -143 -40 -177 0 -41 18
-98 31 -98 6 0 7 32 3 78 -5 59 -2 92 12 142 22 82 56 159 61 143 4 -12 76 76
102 125 15 28 14 94 -1 115 -11 15 -13 8 -13 -41z"/>
<path d="M2311 2142 c-6 -22 -21 -52 -34 -68 -28 -36 -79 -83 -90 -84 -32 -1
-122 -36 -142 -54 -26 -24 -33 -46 -14 -46 5 0 8 4 4 10 -7 12 41 44 54 36 5
-3 11 -1 13 4 2 6 10 12 18 13 8 2 20 6 27 10 6 4 14 3 18 -3 3 -5 1 -10 -6
-10 -7 0 -9 -3 -6 -6 4 -4 13 -2 20 4 8 7 18 8 22 4 5 -4 5 -1 1 6 -4 7 -13 9
-19 6 -8 -5 -8 -3 1 7 9 10 15 10 24 1 9 -9 16 -3 32 25 12 20 27 39 35 41 8
3 5 -5 -7 -18 -24 -26 -23 -34 2 -24 9 3 16 12 16 20 0 8 6 14 13 14 9 0 9 2
-1 9 -8 4 -13 11 -13 15 1 13 26 34 35 28 5 -3 6 -1 3 5 -3 5 -2 27 3 48 12
52 4 58 -9 7z"/>
<path d="M2663 2134 c-3 -10 -17 -33 -30 -50 -13 -17 -23 -35 -23 -40 0 -5 8
3 18 19 10 15 22 24 26 20 4 -5 6 -3 5 2 -2 6 3 21 10 33 7 13 10 26 7 29 -3
3 -9 -3 -13 -13z"/>
<path d="M1809 2033 c-44 -43 -88 -82 -97 -87 -10 -5 -27 -18 -40 -30 -20 -17
-24 -18 -32 -6 -5 8 -10 33 -11 55 l-1 40 -14 -55 c-8 -30 -12 -70 -8 -89 l5
-34 37 35 c20 19 67 58 105 87 37 29 82 72 101 94 73 92 59 89 -45 -10z"/>
<path d="M2187 2079 c-17 -18 -59 -45 -92 -60 -33 -15 -54 -28 -47 -29 21 0
125 57 161 90 18 16 29 30 22 30 -6 0 -26 -14 -44 -31z"/>
<path d="M280 2032 c0 -7 11 -25 25 -40 14 -15 25 -22 25 -17 -1 15 -50 72
-50 57z"/>
<path d="M2377 1932 c-82 -133 -130 -167 -258 -183 -110 -14 -149 -32 -236
-113 -62 -58 -75 -76 -89 -123 -12 -40 -13 -58 -5 -66 8 -8 11 -6 11 9 1 40
42 109 103 169 70 69 118 91 212 99 82 6 149 34 198 83 51 50 110 145 105 169
-2 12 -15 -3 -41 -44z"/>
<path d="M890 1946 c0 -15 -60 -80 -120 -131 -75 -64 -121 -157 -119 -239 1
-39 2 -39 10 14 14 82 53 153 111 202 100 83 128 115 128 142 0 14 -2 26 -5
26 -3 0 -5 -6 -5 -14z"/>
<path d="M1350 1941 c0 -7 -5 -9 -12 -5 -7 4 -8 3 -4 -4 9 -15 -14 -92 -28
-92 -7 0 -7 -3 0 -8 7 -4 14 -18 17 -32 3 -17 5 -12 6 16 0 23 8 61 16 84 8
24 13 45 10 48 -3 3 -5 0 -5 -7z"/>
<path d="M1122 1903 c-21 -40 -96 -114 -204 -200 -65 -52 -108 -116 -108 -159
0 -11 8 -1 20 24 20 44 126 154 170 177 14 7 47 38 74 69 32 37 52 53 56 45 4
-6 10 8 12 32 3 24 4 46 2 47 -1 2 -11 -13 -22 -35z"/>
<path d="M1357 1879 c-10 -36 -8 -127 2 -134 13 -8 24 12 14 28 -13 21 -12 37
3 37 9 0 13 -4 9 -9 -3 -5 -1 -12 4 -15 5 -4 8 1 7 11 -2 9 -9 19 -17 22 -15
6 -18 19 -8 36 4 6 3 19 -1 29 -6 18 -7 18 -13 -5z"/>
<path d="M1962 1886 c-18 -6 -31 -14 -27 -17 10 -10 53 2 59 17 3 8 4 14 3 13
-1 0 -17 -6 -35 -13z"/>
<path d="M2061 1828 c-29 -17 -83 -60 -120 -95 l-66 -64 65 45 c35 25 72 46
82 46 11 0 18 7 18 20 0 11 6 19 13 18 6 -2 11 2 10 8 -1 7 11 17 27 24 17 7
30 16 30 21 0 5 -1 8 -2 8 -2 -1 -27 -15 -57 -31z"/>
<path d="M1694 1772 c-53 -52 -90 -95 -85 -100 1 -2 -4 -9 -12 -15 -8 -7 -19
-25 -25 -42 -5 -16 -13 -39 -17 -50 -4 -11 7 4 24 34 37 65 71 111 130 174 57
61 49 61 -15 -1z"/>
<path d="M361 1696 c-17 -68 -13 -150 10 -219 11 -34 25 -66 30 -72 5 -5 9
-17 9 -26 0 -16 34 -49 149 -147 42 -36 28 -48 -24 -21 l-38 21 21 -29 c18
-25 27 -28 76 -28 31 0 56 4 55 10 0 6 -25 30 -56 55 -108 87 -150 130 -175
177 -38 71 -51 143 -45 239 2 46 4 84 2 84 -1 0 -8 -20 -14 -44z"/>
<path d="M1535 1698 c-10 -18 -25 -42 -34 -52 -13 -16 -14 -18 -1 -14 17 5 65
86 57 95 -3 2 -13 -10 -22 -29z"/>
<path d="M2531 1675 c-1 -51 22 -160 38 -179 5 -6 14 -27 19 -46 10 -34 10
-35 11 -6 1 16 -11 54 -25 84 -16 33 -29 85 -34 126 -7 66 -7 67 -9 21z"/>
<path d="M2571 1700 c-1 -51 21 -116 61 -174 22 -34 38 -52 35 -41 -3 11 -9
35 -12 54 -5 22 -10 29 -15 21 -11 -18 -31 21 -51 100 -9 36 -17 54 -18 40z"/>
<path d="M778 1653 c-24 -31 -38 -58 -32 -60 6 -2 9 -16 8 -31 -4 -27 -4 -27
8 3 15 40 57 107 74 121 13 10 13 12 0 17 -9 4 -30 -14 -58 -50z"/>
<path d="M1393 1615 c-7 -22 -18 -60 -25 -85 -7 -25 -18 -45 -25 -45 -6 0 -15
-3 -19 -7 -3 -4 2 -6 14 -3 15 3 19 -1 15 -16 -3 -10 -10 -16 -17 -12 -7 4 -7
2 1 -7 7 -7 9 -21 4 -34 -4 -11 -7 -49 -6 -83 0 -34 -3 -60 -6 -57 -4 2 -9
-11 -11 -30 -2 -23 0 -32 8 -29 7 2 16 -6 21 -19 5 -15 10 26 14 122 4 115 10
158 28 207 13 36 21 78 19 100 l-3 38 -12 -40z"/>
<path d="M541 1618 c-1 -30 18 -78 30 -78 4 0 11 -10 15 -22 6 -21 134 -152
134 -138 0 4 -13 27 -30 51 -16 24 -30 58 -31 74 -1 24 -3 25 -6 8 -6 -30 -19
-29 -40 5 -10 15 -20 29 -24 32 -3 3 -16 25 -27 50 -18 40 -20 42 -21 18z"/>
<path d="M2245 1517 c-9 -18 -15 -42 -12 -52 4 -16 5 -14 6 6 0 15 10 38 22
53 11 14 16 26 11 26 -5 0 -17 -15 -27 -33z"/>
<path d="M1620 1470 c-43 -49 -53 -74 -15 -40 22 21 62 81 53 80 -2 -1 -19
-19 -38 -40z"/>
<path d="M1679 1430 c-64 -44 -106 -96 -152 -189 -28 -58 -32 -75 -34 -165 -2
-64 0 -94 6 -81 5 11 7 23 5 27 -8 12 18 152 34 188 32 74 96 156 150 193 30
21 61 36 70 32 10 -4 12 -1 8 11 -3 8 -6 18 -6 20 0 12 -31 -2 -81 -36z"/>
<path d="M470 1427 c0 -16 82 -101 131 -135 19 -13 17 -8 -9 31 -18 25 -47 56
-65 68 -17 12 -38 29 -44 37 -12 14 -13 14 -13 -1z"/>
<path d="M2240 1438 c0 -4 7 -16 15 -25 8 -10 21 -27 29 -38 8 -11 17 -18 19
-15 3 3 -10 23 -29 45 -18 22 -34 37 -34 33z"/>
<path d="M646 1385 c4 -8 1 -15 -5 -15 -17 0 7 -51 41 -87 17 -18 35 -30 39
-27 4 2 10 0 14 -6 3 -5 11 -10 17 -10 6 0 -8 18 -31 40 -42 41 -51 64 -28 74
8 3 5 11 -12 25 -27 25 -43 27 -35 6z"/>
<path d="M2440 1393 c0 -5 4 -13 8 -18 23 -26 43 -103 43 -169 1 -104 -30
-195 -81 -237 -22 -18 -42 -39 -44 -46 -9 -23 26 2 67 48 78 87 104 263 53
366 -24 48 -46 75 -46 56z"/>
<path d="M2416 1375 c13 -37 16 -167 5 -209 -14 -49 -32 -87 -47 -101 -7 -5
-15 -23 -19 -40 l-7 -30 26 35 c14 19 35 55 47 79 36 76 38 224 3 267 -15 18
-15 18 -8 -1z"/>
<path d="M2275 1318 c10 -16 21 -28 26 -28 5 0 6 -8 2 -17 -5 -15 -4 -16 8 -5
11 10 8 18 -20 45 -31 30 -32 30 -16 5z"/>
<path d="M1211 1264 c20 -61 22 -73 20 -176 -1 -90 -16 -96 -51 -23 -12 24
-28 49 -37 57 -24 20 61 -137 97 -179 11 -13 20 -27 20 -32 0 -5 11 -29 25
-52 14 -24 25 -56 25 -70 0 -14 7 -34 14 -45 13 -17 13 -11 0 44 -7 35 -21 76
-29 92 -9 17 -14 32 -13 34 2 3 -4 11 -13 18 -14 11 -18 40 -22 168 -5 155
-16 217 -41 217 -9 0 -8 -13 5 -53z"/>
<path d="M2040 1274 c0 -5 16 -27 36 -49 52 -58 63 -77 74 -126 l9 -44 -3 43
c-4 44 -30 89 -86 153 -17 18 -30 28 -30 23z"/>
<path d="M905 1253 c6 -5 35 -30 66 -56 46 -37 63 -61 90 -122 18 -41 36 -75
40 -75 4 0 11 12 16 28 11 31 -2 96 -17 87 -7 -4 -6 -13 0 -25 8 -15 7 -18 -2
-15 -7 3 -19 18 -26 33 -20 47 -109 129 -157 146 -11 4 -16 4 -10 -1z"/>
<path d="M785 1239 c-20 -9 -20 -9 0 -7 11 0 33 -4 48 -10 16 -7 34 -12 42
-12 8 0 16 -4 19 -9 3 -5 16 -11 28 -14 19 -5 18 -3 -8 21 -16 15 -38 27 -49
27 -11 1 -29 4 -40 7 -11 4 -29 2 -40 -3z"/>
<path d="M2030 1194 c12 -40 18 -83 15 -120 -2 -37 0 -52 5 -39 20 48 6 159
-24 200 -11 15 -10 5 4 -41z"/>
<path d="M495 1175 c16 -75 119 -150 220 -160 l50 -5 -60 18 c-104 32 -131 51
-190 137 -26 39 -27 39 -20 10z"/>
<path d="M1346 1073 c1 -32 9 -74 18 -93 l17 -35 -5 64 c-2 38 -10 67 -18 72
-8 6 -9 9 -1 9 6 0 9 9 6 20 -10 39 -19 19 -17 -37z"/>
<path d="M2096 1088 c-4 -23 -3 -44 2 -46 5 -1 7 -15 5 -30 -3 -23 -2 -24 6
-7 12 25 13 96 2 113 -5 9 -10 0 -15 -30z"/>
<path d="M721 1060 c10 -6 50 -17 90 -25 110 -23 183 -68 282 -172 59 -62 90
-110 77 -118 -16 -10 24 -78 99 -170 l24 -30 -7 40 c-4 22 -29 81 -54 130 -85
165 -252 307 -395 334 -92 17 -134 21 -116 11z"/>
<path d="M2315 1036 c-67 -79 -95 -116 -88 -116 13 0 83 74 83 87 0 6 5 13 12
15 6 2 9 9 7 15 -3 8 -7 8 -14 -1z"/>
<path d="M1587 795 c-4 -104 -10 -219 -14 -255 -3 -36 -2 -62 3 -57 4 4 11 69
15 145 5 75 10 160 12 187 2 28 1 77 -2 110 -5 45 -9 13 -14 -130z"/>
<path d="M2441 939 c-48 -85 -115 -154 -180 -183 -33 -15 -61 -29 -61 -31 0
-9 93 25 109 39 10 9 21 16 26 16 13 0 104 100 122 133 18 35 25 67 14 67 -4
0 -18 -18 -30 -41z"/>
<path d="M1556 847 c-8 -62 -4 -89 9 -75 3 3 5 37 3 74 l-3 69 -9 -68z"/>
<path d="M2255 897 c-11 -7 -19 -19 -17 -28 3 -15 -25 -44 -74 -77 -11 -7 -5
-6 11 3 33 16 54 34 99 83 30 32 21 41 -19 19z"/>
<path d="M1052 797 c23 -18 49 -46 58 -62 8 -17 16 -32 18 -34 1 -2 5 -1 8 2
15 15 -20 65 -66 95 -63 42 -73 41 -18 -1z"/>
<path d="M1350 800 c0 -29 21 -109 30 -115 11 -6 0 78 -12 92 -5 7 -7 17 -4
22 4 5 2 12 -4 16 -5 3 -10 -3 -10 -15z"/>
<path d="M2207 777 c-32 -16 -56 -32 -53 -34 6 -6 103 44 111 57 3 5 5 9 3 9
-2 -1 -29 -15 -61 -32z"/>
<path d="M997 788 c21 -10 73 -101 73 -129 1 -26 25 -57 75 -96 58 -46 96
-112 115 -198 18 -85 96 -289 127 -330 26 -37 24 -5 -5 62 -49 112 -101 258
-108 302 -10 64 -61 140 -122 181 -47 31 -54 41 -69 93 -17 60 -67 128 -94
126 -8 0 -4 -5 8 -11z"/>
<path d="M1322 634 c2 -11 7 -22 13 -26 5 -4 14 -24 20 -44 5 -21 16 -39 23
-42 8 -2 5 17 -11 59 -22 59 -52 94 -45 53z"/>
<path d="M1532 319 c-12 -52 -40 -130 -61 -174 -21 -44 -42 -93 -46 -110 -6
-29 -6 -29 9 -10 8 11 16 25 16 32 0 7 15 45 34 85 46 100 78 202 74 240 -2
23 -9 7 -26 -63z"/>
</g>
</svg>
